<!-- <svg id="wave" style="transform:rotate(0deg); transition: 0.3s" viewBox="0 0 1440 150" version="1.1" xmlns="http://www.w3.org/2000/svg"><defs><linearGradient id="sw-gradient-0" x1="0" x2="0" y1="1" y2="0"><stop stop-color="rgba(255, 255, 255, 1)" offset="0%"></stop><stop stop-color="rgba(255, 255, 255, 1)" offset="100%"></stop></linearGradient></defs><path style="transform:translate(0, 0px); opacity:1" fill="url(#sw-gradient-0)" d="M0,75L40,62.5C80,50,160,25,240,22.5C320,20,400,40,480,55C560,70,640,80,720,85C800,90,880,90,960,82.5C1040,75,1120,60,1200,47.5C1280,35,1360,25,1440,22.5C1520,20,1600,25,1680,27.5C1760,30,1840,30,1920,45C2000,60,2080,90,2160,100C2240,110,2320,100,2400,90C2480,80,2560,70,2640,62.5C2720,55,2800,50,2880,55C2960,60,3040,75,3120,87.5C3200,100,3280,110,3360,97.5C3440,85,3520,50,3600,30C3680,10,3760,5,3840,15C3920,25,4000,50,4080,62.5C4160,75,4240,75,4320,75C4400,75,4480,75,4560,75C4640,75,4720,75,4800,85C4880,95,4960,115,5040,122.5C5120,130,5200,125,5280,115C5360,105,5440,90,5520,87.5C5600,85,5680,95,5720,100L5760,105L5760,150L5720,150C5680,150,5600,150,5520,150C5440,150,5360,150,5280,150C5200,150,5120,150,5040,150C4960,150,4880,150,4800,150C4720,150,4640,150,4560,150C4480,150,4400,150,4320,150C4240,150,4160,150,4080,150C4000,150,3920,150,3840,150C3760,150,3680,150,3600,150C3520,150,3440,150,3360,150C3280,150,3200,150,3120,150C3040,150,2960,150,2880,150C2800,150,2720,150,2640,150C2560,150,2480,150,2400,150C2320,150,2240,150,2160,150C2080,150,2000,150,1920,150C1840,150,1760,150,1680,150C1600,150,1520,150,1440,150C1360,150,1280,150,1200,150C1120,150,1040,150,960,150C880,150,800,150,720,150C640,150,560,150,480,150C400,150,320,150,240,150C160,150,80,150,40,150L0,150Z"></path></svg> -->
<svg id="wave" style="transform:rotate(0deg); transition: 0.3s" viewBox="0 0 1440 150" version="1.1" xmlns="http://www.w3.org/2000/svg"><defs><linearGradient id="sw-gradient-0" x1="0" x2="0" y1="1" y2="0"><stop stop-color="rgba(0, 0, 0, 1)" offset="0%"></stop><stop stop-color="rgba(32, 39, 92, 1)" offset="100%"></stop></linearGradient></defs><path style="transform:translate(0, 0px); opacity:1" fill="url(#sw-gradient-0)" d="M0,75L40,62.5C80,50,160,25,240,22.5C320,20,400,40,480,55C560,70,640,80,720,85C800,90,880,90,960,82.5C1040,75,1120,60,1200,47.5C1280,35,1360,25,1440,22.5C1520,20,1600,25,1680,27.5C1760,30,1840,30,1920,45C2000,60,2080,90,2160,100C2240,110,2320,100,2400,90C2480,80,2560,70,2640,62.5C2720,55,2800,50,2880,55C2960,60,3040,75,3120,87.5C3200,100,3280,110,3360,97.5C3440,85,3520,50,3600,30C3680,10,3760,5,3840,15C3920,25,4000,50,4080,62.5C4160,75,4240,75,4320,75C4400,75,4480,75,4560,75C4640,75,4720,75,4800,85C4880,95,4960,115,5040,122.5C5120,130,5200,125,5280,115C5360,105,5440,90,5520,87.5C5600,85,5680,95,5720,100L5760,105L5760,150L5720,150C5680,150,5600,150,5520,150C5440,150,5360,150,5280,150C5200,150,5120,150,5040,150C4960,150,4880,150,4800,150C4720,150,4640,150,4560,150C4480,150,4400,150,4320,150C4240,150,4160,150,4080,150C4000,150,3920,150,3840,150C3760,150,3680,150,3600,150C3520,150,3440,150,3360,150C3280,150,3200,150,3120,150C3040,150,2960,150,2880,150C2800,150,2720,150,2640,150C2560,150,2480,150,2400,150C2320,150,2240,150,2160,150C2080,150,2000,150,1920,150C1840,150,1760,150,1680,150C1600,150,1520,150,1440,150C1360,150,1280,150,1200,150C1120,150,1040,150,960,150C880,150,800,150,720,150C640,150,560,150,480,150C400,150,320,150,240,150C160,150,80,150,40,150L0,150Z"></path></svg>