<!-- <svg id="wave" style="transform:rotate(0deg); transition: 0.3s" viewBox="0 0 1440 150" version="1.1" xmlns="http://www.w3.org/2000/svg"><defs><linearGradient id="sw-gradient-0" x1="0" x2="0" y1="1" y2="0"><stop stop-color="rgba(255, 255, 255, 1)" offset="0%"></stop><stop stop-color="rgba(255, 255, 255, 1)" offset="100%"></stop></linearGradient></defs><path style="transform:translate(0, 0px); opacity:1" fill="url(#sw-gradient-0)" d="M0,75L40,62.5C80,50,160,25,240,22.5C320,20,400,40,480,55C560,70,640,80,720,85C800,90,880,90,960,82.5C1040,75,1120,60,1200,47.5C1280,35,1360,25,1440,22.5C1520,20,1600,25,1680,27.5C1760,30,1840,30,1920,45C2000,60,2080,90,2160,100C2240,110,2320,100,2400,90C2480,80,2560,70,2640,62.5C2720,55,2800,50,2880,55C2960,60,3040,75,3120,87.5C3200,100,3280,110,3360,97.5C3440,85,3520,50,3600,30C3680,10,3760,5,3840,15C3920,25,4000,50,4080,62.5C4160,75,4240,75,4320,75C4400,75,4480,75,4560,75C4640,75,4720,75,4800,85C4880,95,4960,115,5040,122.5C5120,130,5200,125,5280,115C5360,105,5440,90,5520,87.5C5600,85,5680,95,5720,100L5760,105L5760,150L5720,150C5680,150,5600,150,5520,150C5440,150,5360,150,5280,150C5200,150,5120,150,5040,150C4960,150,4880,150,4800,150C4720,150,4640,150,4560,150C4480,150,4400,150,4320,150C4240,150,4160,150,4080,150C4000,150,3920,150,3840,150C3760,150,3680,150,3600,150C3520,150,3440,150,3360,150C3280,150,3200,150,3120,150C3040,150,2960,150,2880,150C2800,150,2720,150,2640,150C2560,150,2480,150,2400,150C2320,150,2240,150,2160,150C2080,150,2000,150,1920,150C1840,150,1760,150,1680,150C1600,150,1520,150,1440,150C1360,150,1280,150,1200,150C1120,150,1040,150,960,150C880,150,800,150,720,150C640,150,560,150,480,150C400,150,320,150,240,150C160,150,80,150,40,150L0,150Z"></path></svg> -->
<svg id="wave" style="transform:rotate(0deg); transition: 0.3s" viewBox="0 0 1440 100" version="1.1" xmlns="http://www.w3.org/2000/svg"><defs><linearGradient id="sw-gradient-0" x1="0" x2="0" y1="1" y2="0"><stop stop-color="rgba(16, 16, 16, 1)" offset="0%"></stop><stop stop-color="rgba(16, 16, 16, 1)" offset="100%"></stop></linearGradient></defs><path style="transform:translate(0, 0px); opacity:1" fill="url(#sw-gradient-0)" d="M0,0L20,13.3C40,27,80,53,120,68.3C160,83,200,87,240,81.7C280,77,320,63,360,55C400,47,440,43,480,43.3C520,43,560,47,600,53.3C640,60,680,70,720,65C760,60,800,40,840,41.7C880,43,920,67,960,71.7C1000,77,1040,63,1080,61.7C1120,60,1160,70,1200,68.3C1240,67,1280,53,1320,45C1360,37,1400,33,1440,26.7C1480,20,1520,10,1560,20C1600,30,1640,60,1680,65C1720,70,1760,50,1800,46.7C1840,43,1880,57,1920,66.7C1960,77,2000,83,2040,73.3C2080,63,2120,37,2160,30C2200,23,2240,37,2280,36.7C2320,37,2360,23,2400,23.3C2440,23,2480,37,2520,41.7C2560,47,2600,43,2640,46.7C2680,50,2720,60,2760,58.3C2800,57,2840,43,2860,36.7L2880,30L2880,100L2860,100C2840,100,2800,100,2760,100C2720,100,2680,100,2640,100C2600,100,2560,100,2520,100C2480,100,2440,100,2400,100C2360,100,2320,100,2280,100C2240,100,2200,100,2160,100C2120,100,2080,100,2040,100C2000,100,1960,100,1920,100C1880,100,1840,100,1800,100C1760,100,1720,100,1680,100C1640,100,1600,100,1560,100C1520,100,1480,100,1440,100C1400,100,1360,100,1320,100C1280,100,1240,100,1200,100C1160,100,1120,100,1080,100C1040,100,1000,100,960,100C920,100,880,100,840,100C800,100,760,100,720,100C680,100,640,100,600,100C560,100,520,100,480,100C440,100,400,100,360,100C320,100,280,100,240,100C200,100,160,100,120,100C80,100,40,100,20,100L0,100Z"></path></svg>